<mxfile host="app.diagrams.net" modified="2023-01-17T07:45:45.174Z" agent="5.0 (Windows NT 10.0; Win64; x64) AppleWebKit/537.36 (KHTML, like Gecko) Chrome/108.0.0.0 Safari/537.36" version="20.8.1" etag="rxSOglIMKIZu8cgsYKX8" type="github">
  <diagram id="n8Z6SS6ofK7uxzqAPtRN" name="Page-1">
    <mxGraphModel dx="848" dy="605" grid="1" gridSize="10" guides="1" tooltips="1" connect="1" arrows="1" fold="1" page="1" pageScale="1" pageWidth="850" pageHeight="1100" math="0" shadow="0">
      <root>
        <mxCell id="0" />
        <mxCell id="1" parent="0" />
        <mxCell id="UQOwW32ChrhTyCgGbpYT-5" style="edgeStyle=orthogonalEdgeStyle;rounded=0;orthogonalLoop=1;jettySize=auto;html=1;exitX=1;exitY=0.5;exitDx=0;exitDy=0;entryX=0;entryY=0.5;entryDx=0;entryDy=0;" edge="1" parent="1" source="UQOwW32ChrhTyCgGbpYT-1" target="UQOwW32ChrhTyCgGbpYT-2">
          <mxGeometry relative="1" as="geometry" />
        </mxCell>
        <mxCell id="UQOwW32ChrhTyCgGbpYT-1" value="KBS" style="whiteSpace=wrap;html=1;aspect=fixed;fillColor=#d5e8d4;strokeColor=#82b366;" vertex="1" parent="1">
          <mxGeometry x="100" y="160" width="80" height="80" as="geometry" />
        </mxCell>
        <mxCell id="UQOwW32ChrhTyCgGbpYT-10" style="edgeStyle=orthogonalEdgeStyle;rounded=0;orthogonalLoop=1;jettySize=auto;html=1;exitX=1;exitY=0.5;exitDx=0;exitDy=0;entryX=0;entryY=0.5;entryDx=0;entryDy=0;" edge="1" parent="1" source="UQOwW32ChrhTyCgGbpYT-2" target="UQOwW32ChrhTyCgGbpYT-4">
          <mxGeometry relative="1" as="geometry" />
        </mxCell>
        <mxCell id="UQOwW32ChrhTyCgGbpYT-2" value="Ldap" style="whiteSpace=wrap;html=1;aspect=fixed;fillColor=#d5e8d4;strokeColor=#82b366;" vertex="1" parent="1">
          <mxGeometry x="310" y="160" width="80" height="80" as="geometry" />
        </mxCell>
        <mxCell id="UQOwW32ChrhTyCgGbpYT-3" value="Forti" style="whiteSpace=wrap;html=1;aspect=fixed;fillColor=#d5e8d4;strokeColor=#82b366;" vertex="1" parent="1">
          <mxGeometry x="550" y="160" width="80" height="80" as="geometry" />
        </mxCell>
        <mxCell id="UQOwW32ChrhTyCgGbpYT-11" style="edgeStyle=orthogonalEdgeStyle;rounded=0;orthogonalLoop=1;jettySize=auto;html=1;exitX=1;exitY=0.5;exitDx=0;exitDy=0;entryX=0;entryY=0.5;entryDx=0;entryDy=0;" edge="1" parent="1" source="UQOwW32ChrhTyCgGbpYT-4" target="UQOwW32ChrhTyCgGbpYT-3">
          <mxGeometry relative="1" as="geometry" />
        </mxCell>
        <mxCell id="UQOwW32ChrhTyCgGbpYT-4" value="Radius" style="whiteSpace=wrap;html=1;aspect=fixed;fillColor=#f5f5f5;strokeColor=#666666;fontColor=#333333;" vertex="1" parent="1">
          <mxGeometry x="430" y="280" width="80" height="80" as="geometry" />
        </mxCell>
        <mxCell id="UQOwW32ChrhTyCgGbpYT-7" value="https://kamu.kutahya.gov.tr" style="text;html=1;align=center;verticalAlign=middle;resizable=0;points=[];autosize=1;strokeColor=none;fillColor=none;" vertex="1" parent="1">
          <mxGeometry x="55" y="125" width="170" height="30" as="geometry" />
        </mxCell>
        <mxCell id="UQOwW32ChrhTyCgGbpYT-8" value="http://192.168.10.140:10007/cmd.php" style="text;html=1;align=center;verticalAlign=middle;resizable=0;points=[];autosize=1;strokeColor=none;fillColor=none;" vertex="1" parent="1">
          <mxGeometry x="240" y="125" width="220" height="30" as="geometry" />
        </mxCell>
        <mxCell id="UQOwW32ChrhTyCgGbpYT-9" value="https://192.168.20.1:4326/" style="text;html=1;align=center;verticalAlign=middle;resizable=0;points=[];autosize=1;strokeColor=none;fillColor=none;" vertex="1" parent="1">
          <mxGeometry x="500" y="125" width="160" height="30" as="geometry" />
        </mxCell>
        <mxCell id="UQOwW32ChrhTyCgGbpYT-12" value="* Gizle Sekmeden giriş dene" style="text;html=1;align=center;verticalAlign=middle;resizable=0;points=[];autosize=1;strokeColor=none;fillColor=none;fontSize=10;" vertex="1" parent="1">
          <mxGeometry x="40" y="240" width="150" height="30" as="geometry" />
        </mxCell>
        <mxCell id="UQOwW32ChrhTyCgGbpYT-13" value="Güncel şifreleri Ldap &#39;a gönder&lt;br&gt;&lt;br&gt;http://192.168.10.140:9000/&lt;br&gt;&lt;br style=&quot;border-color: var(--border-color);&quot;&gt;php artisan data:entegrator 4&lt;br style=&quot;border-color: var(--border-color);&quot;&gt;php artisan data:entegrator 5" style="text;html=1;align=center;verticalAlign=middle;resizable=0;points=[];autosize=1;strokeColor=none;fillColor=none;fontSize=10;" vertex="1" parent="1">
          <mxGeometry x="170" y="350" width="160" height="90" as="geometry" />
        </mxCell>
      </root>
    </mxGraphModel>
  </diagram>
</mxfile>
